<svg width="48" height="48" viewBox="0 0 48 48" fill="none" xmlns="http://www.w3.org/2000/svg">
<path d="M24.0135 3C11.8511 3 2 12.8511 2 25.0135C2 34.7545 8.30138 42.9821 17.0518 45.8989C18.1524 46.0915 18.5652 45.4311 18.5652 44.8532C18.5652 44.3304 18.5377 42.5969 18.5377 40.7532C13.0068 41.7713 11.5759 39.4049 11.1356 38.1666C10.888 37.5337 9.81481 35.58 8.87923 35.0572C8.10876 34.6445 7.00808 33.6263 8.85171 33.5988C10.5853 33.5713 11.8235 35.1948 12.2363 35.8552C14.2175 39.1848 17.382 38.2492 18.6477 37.6713C18.8404 36.2404 19.4182 35.2774 20.0511 34.727C15.1531 34.1767 10.0349 32.278 10.0349 23.8578C10.0349 21.4639 10.888 19.4826 12.2913 17.9417C12.0712 17.3914 11.3007 15.135 12.5115 12.1081C12.5115 12.1081 14.3551 11.5302 18.5652 14.3645C20.3263 13.8692 22.1974 13.6215 24.0686 13.6215C25.9397 13.6215 27.8109 13.8692 29.572 14.3645C33.782 11.5027 35.6257 12.1081 35.6257 12.1081C36.8364 15.135 36.066 17.3914 35.8458 17.9417C37.2492 19.4826 38.1022 21.4363 38.1022 23.8578C38.1022 32.3055 32.9565 34.1767 28.0585 34.727C28.8565 35.4149 29.5444 36.7357 29.5444 38.7995C29.5444 41.7438 29.5169 44.1103 29.5169 44.8532C29.5169 45.4311 29.9297 46.119 31.0304 45.8989C35.4011 44.4247 39.1992 41.6163 41.8896 37.8695C44.58 34.1227 46.0271 29.6262 46.0271 25.0135C46.0271 12.8511 36.176 3 24.0135 3Z" fill="#284143"/>
</svg>
