<svg width="24" height="25" viewBox="0 0 24 25" fill="none" xmlns="http://www.w3.org/2000/svg">
<g clip-path="url(#clip0_618_4221)">
<path d="M9 19.4994C4 20.9994 4 16.9994 2 16.4994M16 22.4994V18.6294C16.0375 18.1526 15.9731 17.6733 15.811 17.2232C15.6489 16.7732 15.3929 16.3629 15.06 16.0195C18.2 15.6695 21.5 14.4794 21.5 9.01945C21.4997 7.62328 20.9627 6.28065 20 5.26945C20.4559 4.04796 20.4236 2.6978 19.91 1.49945C19.91 1.49945 18.73 1.14945 16 2.97945C13.708 2.35827 11.292 2.35827 9 2.97945C6.27 1.14945 5.09 1.49945 5.09 1.49945C4.57638 2.6978 4.54414 4.04796 5 5.26945C4.03013 6.28815 3.49252 7.64291 3.5 9.04945C3.5 14.4694 6.8 15.6594 9.94 16.0494C9.611 16.3894 9.35726 16.7949 9.19531 17.2394C9.03335 17.6839 8.96681 18.1575 9 18.6294V22.4994" stroke="white" stroke-width="2" stroke-linecap="round" stroke-linejoin="round"/>
</g>
<defs>
<clipPath id="clip0_618_4221">
<rect width="24" height="24" fill="white" transform="translate(0 0.5)"/>
</clipPath>
</defs>
</svg>
