<svg width="24" height="24" viewBox="0 0 24 24" fill="none" xmlns="http://www.w3.org/2000/svg">
<path d="M12.2705 8.10938L12.2705 2.13182" stroke="white" stroke-width="1.06665" stroke-linecap="round"/>
<path d="M14.375 6.03906L13.6873 8.51751" stroke="white" stroke-width="1.06665" stroke-linecap="round"/>
<path d="M18.2285 9.46094L16.1018 10.7483" stroke="white" stroke-width="1.06665" stroke-linecap="round"/>
<path d="M6.32617 9.46094L8.45284 10.7483" stroke="white" stroke-width="1.06665" stroke-linecap="round"/>
<path d="M10.8018 8.61328L9.96187 6.19385" stroke="white" stroke-width="1.06665" stroke-linecap="round"/>
<path d="M15.0698 9.33984L19.1255 5.08752" stroke="white" stroke-width="1.06665" stroke-linecap="round"/>
<path d="M4.94873 4.625L9.29992 9.18713" stroke="white" stroke-width="1.06665" stroke-linecap="round"/>
<path d="M2.1333 12.3047L21.8663 12.3047" stroke="white" stroke-width="1.06665" stroke-linecap="round"/>
<path d="M12.4141 15.4648C12.3498 15.469 12.285 15.4717 12.2197 15.4717C12.1544 15.4717 12.0897 15.469 12.0254 15.4648H12.4141ZM12.2197 9.01953C13.919 9.01953 15.2969 10.4645 15.2969 12.2461V12.2471H9.14355V12.2461C9.14355 10.4645 10.5205 9.01959 12.2197 9.01953Z" fill="white"/>
</svg>
