<svg width="24" height="24" viewBox="0 0 24 24" fill="none" xmlns="http://www.w3.org/2000/svg">
<circle cx="12.2668" cy="12.0026" r="2.53984" fill="#FFC300" stroke="#FFC300" stroke-width="0.253702"/>
<path d="M12.2705 7.83594L12.2705 2.13448" stroke="#FFC300" stroke-width="1.06668" stroke-linecap="round"/>
<path d="M16.166 11.8359L21.8667 11.8359" stroke="#FFC300" stroke-width="1.06668" stroke-linecap="round"/>
<path d="M15.2129 14.7812L19.5643 19.1327" stroke="#FFC300" stroke-width="1.06668" stroke-linecap="round"/>
<path d="M14.0659 15.5078L14.9058 17.8155" stroke="#FFC300" stroke-width="1.06668" stroke-linecap="round"/>
<path d="M14.375 5.86328L13.6872 8.22725" stroke="#FFC300" stroke-width="1.06668" stroke-linecap="round"/>
<path d="M16.3418 13.6328L18.4671 14.8632" stroke="#FFC300" stroke-width="1.06668" stroke-linecap="round"/>
<path d="M18.2285 9.125L16.1017 10.3529" stroke="#FFC300" stroke-width="1.06668" stroke-linecap="round"/>
<path d="M8.5083 13.4219L6.38153 14.6498" stroke="#FFC300" stroke-width="1.06668" stroke-linecap="round"/>
<path d="M6.32764 9.125L8.45441 10.3529" stroke="#FFC300" stroke-width="1.06668" stroke-linecap="round"/>
<path d="M9.76611 17.9141L10.606 15.6064" stroke="#FFC300" stroke-width="1.06668" stroke-linecap="round"/>
<path d="M10.8027 8.31641L9.96281 6.00872" stroke="#FFC300" stroke-width="1.06668" stroke-linecap="round"/>
<path d="M15.0698 9.00781L19.1257 4.9519" stroke="#FFC300" stroke-width="1.06668" stroke-linecap="round"/>
<path d="M4.94873 4.51562L9.30014 8.86703" stroke="#FFC300" stroke-width="1.06668" stroke-linecap="round"/>
<path d="M4.94873 19.1289L9.30014 14.7775" stroke="#FFC300" stroke-width="1.06668" stroke-linecap="round"/>
<path d="M12.2705 15.7188L12.2705 21.8726" stroke="#FFC300" stroke-width="1.06668" stroke-linecap="round"/>
<path d="M2.1333 11.8359L8.28712 11.8359" stroke="#FFC300" stroke-width="1.06668" stroke-linecap="round"/>
</svg>
