<svg width="16" height="14" viewBox="0 0 16 14" fill="none" xmlns="http://www.w3.org/2000/svg">
<path d="M14.8024 1.27472C14.4263 0.898464 13.9798 0.599987 13.4883 0.396346C12.9968 0.192705 12.4701 0.0878906 11.9381 0.0878906C11.4061 0.0878906 10.8793 0.192705 10.3878 0.396346C9.89637 0.599987 9.44984 0.898464 9.07376 1.27472L8.29325 2.05523L7.51274 1.27472C6.75307 0.51506 5.72275 0.0882844 4.64842 0.0882844C3.57409 0.0882844 2.54376 0.51506 1.7841 1.27472C1.02443 2.03439 0.597656 3.06472 0.597656 4.13905C0.597656 5.21337 1.02443 6.2437 1.7841 7.00337L2.56461 7.78387L8.29325 13.5125L14.0219 7.78387L14.8024 7.00337C15.1787 6.62728 15.4771 6.18075 15.6808 5.68928C15.8844 5.19781 15.9892 4.67103 15.9892 4.13905C15.9892 3.60706 15.8844 3.08028 15.6808 2.58881C15.4771 2.09734 15.1787 1.65081 14.8024 1.27472Z" fill="#FF0000"/>
</svg>
