<svg width="48" height="48" viewBox="0 0 48 48" fill="none" xmlns="http://www.w3.org/2000/svg">
<path fill-rule="evenodd" clip-rule="evenodd" d="M38.6667 2C40.6116 2 42.4769 2.77262 43.8521 4.14788C45.2274 5.52315 46 7.38841 46 9.33333V38.6667C46 40.6116 45.2274 42.4769 43.8521 43.8521C42.4769 45.2274 40.6116 46 38.6667 46H9.33333C7.38841 46 5.52315 45.2274 4.14788 43.8521C2.77262 42.4769 2 40.6116 2 38.6667V9.33333C2 7.38841 2.77262 5.52315 4.14788 4.14788C5.52315 2.77262 7.38841 2 9.33333 2H38.6667ZM14.2222 19.1111C13.5739 19.1111 12.9522 19.3687 12.4937 19.8271C12.0353 20.2855 11.7778 20.9072 11.7778 21.5556V33.7778C11.7778 34.4261 12.0353 35.0478 12.4937 35.5063C12.9522 35.9647 13.5739 36.2222 14.2222 36.2222C14.8705 36.2222 15.4923 35.9647 15.9507 35.5063C16.4091 35.0478 16.6667 34.4261 16.6667 33.7778V21.5556C16.6667 20.9072 16.4091 20.2855 15.9507 19.8271C15.4923 19.3687 14.8705 19.1111 14.2222 19.1111ZM21.5556 16.6667C20.9072 16.6667 20.2855 16.9242 19.8271 17.3826C19.3687 17.8411 19.1111 18.4628 19.1111 19.1111V33.7778C19.1111 34.4261 19.3687 35.0478 19.8271 35.5063C20.2855 35.9647 20.9072 36.2222 21.5556 36.2222C22.2039 36.2222 22.8256 35.9647 23.284 35.5063C23.7425 35.0478 24 34.4261 24 33.7778V24.8311C24.7456 23.9902 26.0044 23.0027 27.4051 22.4038C28.2191 22.0567 29.4438 21.9149 30.2944 22.1838C30.5766 22.2554 30.828 22.4166 31.0107 22.6433C31.1378 22.8144 31.3333 23.1958 31.3333 24V33.7778C31.3333 34.4261 31.5909 35.0478 32.0493 35.5063C32.5077 35.9647 33.1295 36.2222 33.7778 36.2222C34.4261 36.2222 35.0478 35.9647 35.5063 35.5063C35.9647 35.0478 36.2222 34.4261 36.2222 33.7778V24C36.2222 22.3622 35.8067 20.9053 34.9413 19.7369C34.1451 18.6774 33.0307 17.9004 31.7611 17.5198C29.5562 16.828 27.1142 17.2118 25.4838 17.9109C24.9618 18.1354 24.4533 18.39 23.9609 18.6736C23.8584 18.1103 23.5615 17.6009 23.1219 17.2342C22.6824 16.8674 22.128 16.6666 21.5556 16.6667ZM14.2222 11.7778C13.5739 11.7778 12.9522 12.0353 12.4937 12.4937C12.0353 12.9522 11.7778 13.5739 11.7778 14.2222C11.7778 14.8705 12.0353 15.4923 12.4937 15.9507C12.9522 16.4091 13.5739 16.6667 14.2222 16.6667C14.8705 16.6667 15.4923 16.4091 15.9507 15.9507C16.4091 15.4923 16.6667 14.8705 16.6667 14.2222C16.6667 13.5739 16.4091 12.9522 15.9507 12.4937C15.4923 12.0353 14.8705 11.7778 14.2222 11.7778Z" fill="#284143"/>
</svg>
