<svg width="48" height="49" viewBox="0 0 48 49" fill="none" xmlns="http://www.w3.org/2000/svg">
<mask id="path-1-inside-1_626_4390" fill="white">
<path d="M16.9844 23.8211C16.9844 22.8996 17.1659 21.9873 17.5185 21.136C17.8711 20.2847 18.3879 19.5113 19.0394 18.8597C19.691 18.2082 20.4644 17.6914 21.3157 17.3388C22.167 16.9862 23.0793 16.8047 24.0007 16.8047C24.9221 16.8047 25.8345 16.9862 26.6858 17.3388C27.5371 17.6914 28.3105 18.2082 28.9621 18.8597C29.6136 19.5113 30.1304 20.2847 30.483 21.136C30.8356 21.9873 31.0171 22.8997 31.0171 23.8211L24.0007 23.8211L16.9844 23.8211Z"/>
</mask>
<path d="M16.9844 23.8211C16.9844 22.8996 17.1659 21.9873 17.5185 21.136C17.8711 20.2847 18.3879 19.5113 19.0394 18.8597C19.691 18.2082 20.4644 17.6914 21.3157 17.3388C22.167 16.9862 23.0793 16.8047 24.0007 16.8047C24.9221 16.8047 25.8345 16.9862 26.6858 17.3388C27.5371 17.6914 28.3105 18.2082 28.9621 18.8597C29.6136 19.5113 30.1304 20.2847 30.483 21.136C30.8356 21.9873 31.0171 22.8997 31.0171 23.8211L24.0007 23.8211L16.9844 23.8211Z" fill="white" stroke="white" stroke-width="0.951371" stroke-linecap="round" mask="url(#path-1-inside-1_626_4390)"/>
<path d="M24.1172 15.8516L24.1172 1.81883" stroke="white" stroke-width="0.475686" stroke-linecap="round"/>
<path d="M31.9668 23.9395L45.9995 23.9395" stroke="white" stroke-width="0.475686" stroke-linecap="round"/>
<path d="M29.5684 9.42969L27.2093 15.9112" stroke="white" stroke-width="0.475686" stroke-linecap="round"/>
<path d="M37.7031 17.7559L31.7298 21.2046" stroke="white" stroke-width="0.475686" stroke-linecap="round"/>
<path d="M10.5605 17.7559L16.5339 21.2046" stroke="white" stroke-width="0.475686" stroke-linecap="round"/>
<path d="M20.7695 15.9121L18.4105 9.43063" stroke="white" stroke-width="0.475686" stroke-linecap="round"/>
<path d="M29.8301 18.1641L39.7527 8.24142" stroke="white" stroke-width="0.475686" stroke-linecap="round"/>
<path d="M8.42383 8.23828L18.3465 18.1609" stroke="white" stroke-width="0.475686" stroke-linecap="round"/>
<path d="M2 23.9395L16.0327 23.9395" stroke="white" stroke-width="0.475686" stroke-linecap="round"/>
</svg>
