<svg width="48" height="48" viewBox="0 0 48 48" fill="none" xmlns="http://www.w3.org/2000/svg">
<circle cx="23.9988" cy="24.5007" r="6.77852" fill="#FBFF00" stroke="#FBFF00" stroke-width="0.475686"/>
<path d="M24.1172 16.5332L24.1172 2.50047" stroke="#FBFF00" stroke-width="0.475686" stroke-linecap="round"/>
<path d="M31.9668 24.6191L45.9995 24.6191" stroke="#FBFF00" stroke-width="0.475686" stroke-linecap="round"/>
<path d="M29.8262 30.3301L39.7488 40.2527" stroke="#FBFF00" stroke-width="0.475686" stroke-linecap="round"/>
<path d="M27.2129 31.9922L29.572 38.4737" stroke="#FBFF00" stroke-width="0.475686" stroke-linecap="round"/>
<path d="M29.5684 10.1113L27.2093 16.5928" stroke="#FBFF00" stroke-width="0.475686" stroke-linecap="round"/>
<path d="M31.7266 27.2383L37.6999 30.687" stroke="#FBFF00" stroke-width="0.475686" stroke-linecap="round"/>
<path d="M37.7031 18.4355L31.7298 21.8843" stroke="#FBFF00" stroke-width="0.475686" stroke-linecap="round"/>
<path d="M16.5371 27.2383L10.5637 30.687" stroke="#FBFF00" stroke-width="0.475686" stroke-linecap="round"/>
<path d="M10.5645 18.4355L16.5378 21.8843" stroke="#FBFF00" stroke-width="0.475686" stroke-linecap="round"/>
<path d="M18.4062 38.4746L20.7653 31.9931" stroke="#FBFF00" stroke-width="0.475686" stroke-linecap="round"/>
<path d="M20.7695 16.5938L18.4105 10.1123" stroke="#FBFF00" stroke-width="0.475686" stroke-linecap="round"/>
<path d="M29.8262 18.8457L39.7488 8.92307" stroke="#FBFF00" stroke-width="0.475686" stroke-linecap="round"/>
<path d="M8.41992 8.92188L18.3426 18.8445" stroke="#FBFF00" stroke-width="0.475686" stroke-linecap="round"/>
<path d="M8.41992 40.252L18.3426 30.3293" stroke="#FBFF00" stroke-width="0.475686" stroke-linecap="round"/>
<path d="M24.1172 32.4668L24.1172 46.4995" stroke="#FBFF00" stroke-width="0.475686" stroke-linecap="round"/>
<path d="M2 24.6191L16.0327 24.6191" stroke="#FBFF00" stroke-width="0.475686" stroke-linecap="round"/>
</svg>
