<svg width="100" height="100" viewBox="0 0 100 100" fill="none" xmlns="http://www.w3.org/2000/svg">
<g clip-path="url(#clip0_2318_4196)">
<mask id="mask0_2318_4196" style="mask-type:luminance" maskUnits="userSpaceOnUse" x="0" y="0" width="100" height="100">
<path d="M0 0H100V100H0V0Z" fill="white"/>
</mask>
<g mask="url(#mask0_2318_4196)">
<path d="M36.7515 77.3357C36.7515 77.3357 32.9295 79.5577 39.4715 80.3097C47.3955 81.2137 51.4445 81.0837 60.1775 79.4307C60.1775 79.4307 62.4735 80.8707 65.6795 82.1177C46.1035 90.5077 21.3755 81.6317 36.7515 77.3357ZM34.3585 66.3867C34.3585 66.3867 30.0725 69.5597 36.6185 70.2367C45.0825 71.1097 51.7685 71.1817 63.3355 68.9537C63.3355 68.9537 64.9355 70.5757 67.4505 71.4637C43.7825 78.3837 17.4205 72.0087 34.3585 66.3867Z" fill="#5382A1"/>
<path d="M54.5258 47.8158C59.3488 53.3698 53.2588 58.3668 53.2588 58.3668C53.2588 58.3668 65.5058 52.0448 59.8808 44.1268C54.6288 36.7438 50.5988 33.0748 72.4088 20.4258C72.4088 20.4258 38.1748 28.9758 54.5258 47.8158Z" fill="#E76F00"/>
<path d="M80.4176 85.4356C80.4176 85.4356 83.2446 87.7656 77.3026 89.5686C66.0026 92.9916 30.2726 94.0246 20.3466 89.7046C16.7786 88.1526 23.4706 85.9986 25.5746 85.5456C27.7696 85.0706 29.0246 85.1586 29.0246 85.1586C25.0566 82.3636 3.37663 90.6486 18.0126 93.0196C57.9256 99.4926 90.7696 90.1056 80.4176 85.4356ZM38.5896 55.0456C38.5896 55.0456 20.4156 59.3626 32.1536 60.9296C37.1096 61.5936 46.9906 61.4436 56.1936 60.6716C63.7156 60.0376 71.2686 58.6886 71.2686 58.6886C71.2686 58.6886 68.6156 59.8246 66.6976 61.1346C48.2406 65.9886 12.5876 63.7306 22.8516 58.7646C31.5316 54.5696 38.5896 55.0456 38.5896 55.0456ZM71.1926 73.2686C89.9546 63.5186 81.2806 54.1506 75.2256 55.4126C73.7416 55.7216 73.0796 55.9886 73.0796 55.9886C73.0796 55.9886 73.6306 55.1256 74.6826 54.7526C86.6606 50.5406 95.8726 67.1726 70.8156 73.7596C70.8156 73.7596 71.1056 73.4996 71.1926 73.2686Z" fill="#5382A1"/>
<path d="M59.8813 0C59.8813 0 70.2713 10.395 50.0263 26.377C33.7923 39.2 46.3243 46.51 50.0193 54.861C40.5433 46.311 33.5893 38.784 38.2543 31.779C45.1023 21.496 64.0743 16.51 59.8813 0Z" fill="#E76F00"/>
<path d="M40.4349 99.6844C58.4439 100.837 86.0979 99.0444 86.7529 90.5234C86.7529 90.5234 85.4929 93.7534 71.8699 96.3194C56.4989 99.2114 37.5409 98.8744 26.2969 97.0194C26.2969 97.0194 28.5989 98.9254 40.4349 99.6844Z" fill="#5382A1"/>
</g>
</g>
<defs>
<clipPath id="clip0_2318_4196">
<rect width="100" height="100" fill="white"/>
</clipPath>
</defs>
</svg>
