<svg width="1848" height="551" viewBox="0 0 1848 551" fill="none" xmlns="http://www.w3.org/2000/svg">
<path d="M91 63C73 20 43 0 0 0V551H1848V121C1842.71 124.486 1841.55 127.374 1839 134C1794 101 1738 113 1705 166C1676.5 161 1657.31 165.123 1634 182C1562 154.5 1498.5 185 1470 265C1446.17 274.95 1437.63 283.609 1427 302C1397.5 283 1373.3 284.282 1348 305C1315 278.5 1277.5 278.5 1245 296C1197 273 1150 276.5 1107 320C1091.4 317.013 1083.94 317.459 1073 322C1035 285.5 986.5 280.5 939 303C910 289.5 876.865 289.342 847 303C823 289.5 807.338 286.498 782 289C744 253 705.5 247 660 258C623 238 593 233 552 248C525.5 231 498.5 227.5 475 234C440.5 197.5 400.249 187.561 358 205C351.462 196.572 347.028 192.869 338 188C323 91.5 229 45.5 148 76C125.398 63.0886 112.959 60.4038 91 63Z" fill="#959595"/>
</svg>
