<svg width="1848" height="849" viewBox="0 0 1848 849" fill="none" xmlns="http://www.w3.org/2000/svg">
<path d="M9 42C9.0738 24.0663 7.03175 14.9011 0 0V849H1848V41C1804.02 56.0997 1781.5 76 1767 115C1720.5 120.5 1684 160.5 1689.5 205C1666.18 209.779 1657.71 219.056 1648.5 244C1618.76 219.522 1600.46 213.471 1564 221C1462.5 160.5 1363.5 226 1356 320C1353.04 321.037 1351.8 322.243 1350 325C1317 290 1267.5 290.5 1234 325C1206.5 306.5 1157.5 305.5 1125 354C1122.5 351.039 1120.94 350.023 1118 349C1075 258 954.5 248.5 897 321C869 321 854.5 331.5 836 350C823.966 340.205 816.391 337.633 801 339C789.5 308 764.5 285 730 277C676.5 202.5 590 189.5 518 242C500.434 239.939 492.305 241.734 479 247C456 217 424.5 207 389 215C372.5 189 357.5 178.5 332 173C303.5 101.5 246.5 76.5 178 94C144 67.5 115.5 63.5 77 81C58.5 47 40.7816 38.5346 9 42Z" fill="#282828"/>
</svg>
