<svg width="73" height="73" viewBox="0 0 73 73" fill="none" xmlns="http://www.w3.org/2000/svg">
<path d="M27.0508 9.55273H36.0508V27.5527H27.0508C24.6638 27.5527 22.3746 26.6045 20.6868 24.9167C18.999 23.2289 18.0508 20.9397 18.0508 18.5527C18.0508 16.1658 18.999 13.8766 20.6868 12.1888C22.3746 10.5009 24.6638 9.55273 27.0508 9.55273Z" fill="#F4511E"/>
<path d="M45.0469 27.5527H36.0469V9.55273H45.0469C47.4338 9.55273 49.723 10.5009 51.4108 12.1888C53.0987 13.8766 54.0469 16.1658 54.0469 18.5527C54.0469 20.9397 53.0987 23.2289 51.4108 24.9167C49.723 26.6045 47.4338 27.5527 45.0469 27.5527Z" fill="#FF8A65"/>
<path d="M36.0469 36.5508C36.0469 41.5213 40.0763 45.5508 45.0469 45.5508C50.0174 45.5508 54.0469 41.5213 54.0469 36.5508C54.0469 31.5802 50.0174 27.5508 45.0469 27.5508C40.0763 27.5508 36.0469 31.5802 36.0469 36.5508Z" fill="#29B6F6"/>
<path d="M27.0508 27.5508H36.0508V45.5508H27.0508C24.6638 45.5508 22.3746 44.6026 20.6868 42.9147C18.999 41.2269 18.0508 38.9377 18.0508 36.5508C18.0508 34.1638 18.999 31.8746 20.6868 30.1868C22.3746 28.499 24.6638 27.5508 27.0508 27.5508Z" fill="#7C4DFF"/>
<path d="M27.0508 45.5508H36.0508V54.5508C36.0508 56.9377 35.1026 59.2269 33.4147 60.9147C31.7269 62.6026 29.4377 63.5508 27.0508 63.5508C24.6638 63.5508 22.3746 62.6026 20.6868 60.9147C18.999 59.2269 18.0508 56.9377 18.0508 54.5508C18.0508 52.1638 18.999 49.8746 20.6868 48.1868C22.3746 46.499 24.6638 45.5508 27.0508 45.5508Z" fill="#00E676"/>
</svg>
