<svg width="73" height="73" viewBox="0 0 73 73" fill="none" xmlns="http://www.w3.org/2000/svg">
<rect x="8.95312" y="9.40625" width="54.4048" height="53.4049" rx="8.85881" fill="white"/>
<path d="M54.2869 47.6627C51.945 47.6043 50.13 47.8385 48.6077 48.4824C48.1686 48.6579 47.4659 48.6581 47.4074 49.2144C47.6416 49.4486 47.6709 49.8292 47.8758 50.1511C48.2275 50.7365 48.8418 51.5269 49.3981 51.937C50.0127 52.4053 50.6277 52.8735 51.2715 53.2834C52.4133 53.9861 53.7015 54.3958 54.8139 55.0985C55.4582 55.508 56.1017 56.0353 56.7459 56.4743C57.0679 56.7082 57.2727 57.0891 57.6827 57.2354V57.1477C57.4776 56.884 57.4191 56.5036 57.2143 56.2108C56.9219 55.9181 56.6287 55.6546 56.336 55.3618C55.4871 54.2203 54.4333 53.2249 53.2916 52.4053C52.3549 51.7612 50.3055 50.883 49.9251 49.7997C49.9251 49.7997 49.8956 49.7706 49.8665 49.7414C50.5104 49.6828 51.2715 49.4486 51.8865 49.2729C52.8817 49.0093 53.7892 49.068 54.8139 48.8045C55.2822 48.6874 55.7506 48.541 56.2189 48.3946V48.1313C55.6922 47.6043 55.3116 46.9018 54.7553 46.4041C53.2623 45.1157 51.6228 43.8571 49.9251 42.8033C49.0175 42.2177 47.8464 41.8371 46.8804 41.3396C46.5294 41.1638 45.9437 41.0761 45.7389 40.7833C45.2117 40.1394 44.919 39.2905 44.5385 38.5293C43.6898 36.919 42.8699 35.1334 42.1379 33.4357C41.6113 32.2939 41.2892 31.1521 40.6451 30.0984C37.6299 25.1217 34.3512 22.1065 29.3161 19.1497C28.2329 18.535 26.9448 18.2715 25.5689 17.9496C24.8373 17.9202 24.1052 17.8618 23.3735 17.8323C22.905 17.6274 22.4366 17.0713 22.0267 16.8078C20.3584 15.7538 16.0548 13.4707 14.8253 16.4859C14.0348 18.3886 15.9964 20.262 16.6695 21.2284C17.1675 21.9016 17.8113 22.6626 18.1626 23.4238C18.3675 23.9212 18.4259 24.4485 18.6309 24.9754C19.0995 26.2631 19.5383 27.6978 20.1533 28.8982C20.4753 29.5129 20.8265 30.1568 21.2364 30.7131C21.4706 31.0349 21.8803 31.1815 21.9683 31.7083C21.5586 32.2939 21.5292 33.1722 21.2948 33.904C20.241 37.212 20.651 41.3103 22.1438 43.74C22.6121 44.4716 23.7246 46.0822 25.2176 45.4672C26.5351 44.9404 26.2423 43.2717 26.6226 41.808C26.7108 41.4564 26.6522 41.2225 26.8277 40.9883V41.047C27.2376 41.8664 27.6473 42.6571 28.0279 43.4767C28.9355 44.9109 30.5162 46.4041 31.8335 47.3995C32.5363 47.9262 33.0924 48.8338 33.9707 49.1558V49.0678H33.912C33.7363 48.8043 33.4728 48.6874 33.2388 48.4823C32.712 47.9556 32.1262 47.3115 31.7165 46.726C30.4872 45.0864 29.4038 43.2716 28.4378 41.398C27.9695 40.4907 27.5595 39.4953 27.179 38.5878C27.0032 38.2362 27.0032 37.7095 26.7106 37.534C26.2714 38.178 25.6275 38.7342 25.3054 39.5246C24.7495 40.7833 24.6908 42.3348 24.4858 43.9448C24.3687 43.9744 24.4271 43.9448 24.3686 44.0037C23.432 43.7691 23.11 42.8033 22.7585 41.9835C21.8802 39.9052 21.7338 36.5679 22.4952 34.1675C22.7001 33.5526 23.5784 31.6207 23.2271 31.0351C23.0514 30.4788 22.4657 30.1568 22.1438 29.7178C21.7634 29.1615 21.3533 28.4592 21.09 27.8442C20.3873 26.2048 20.036 24.3898 19.275 22.7504C18.9236 21.9892 18.3092 21.1991 17.8113 20.4964C17.2552 19.7061 16.6403 19.1497 16.2012 18.213C16.055 17.8911 15.8499 17.3641 16.0841 17.0127C16.1426 16.7785 16.2596 16.6909 16.494 16.6323C16.8746 16.3101 17.9578 16.72 18.3381 16.8956C19.4214 17.3345 20.3288 17.7447 21.2364 18.3593C21.6461 18.6521 22.0853 19.2084 22.6121 19.3548H23.2269C24.1638 19.5595 25.2174 19.4133 26.0958 19.6767C27.6475 20.1742 29.0525 20.9061 30.3114 21.6966C34.1464 24.1263 37.3077 27.5807 39.4449 31.7083C39.7963 32.3814 39.9425 32.9965 40.2645 33.6989C40.8795 35.1334 41.6406 36.5971 42.2551 38.0023C42.8699 39.378 43.4553 40.7833 44.3336 41.9251C44.7727 42.5396 46.529 42.8618 47.3195 43.1839C47.9051 43.4472 48.8127 43.6816 49.3395 44.0035C50.3348 44.618 51.33 45.321 52.2669 45.994C52.7354 46.3453 54.1989 47.0773 54.2869 47.6627Z" fill="#00546B"/>
<path d="M24.4344 22.2227C23.9369 22.2227 23.5857 22.2815 23.2344 22.3692V22.4278H23.2929C23.5273 22.8962 23.9369 23.2183 24.2295 23.628C24.4639 24.0962 24.6686 24.5648 24.903 25.0333C24.9321 25.0038 24.9614 24.9747 24.9614 24.9747C25.3715 24.6818 25.5762 24.2135 25.5762 23.5109C25.4006 23.3061 25.3713 23.1011 25.2249 22.8962C25.0494 22.6033 24.6686 22.457 24.4344 22.2227Z" fill="#00546B"/>
</svg>
