<svg width="73" height="73" viewBox="0 0 73 73" fill="none" xmlns="http://www.w3.org/2000/svg">
<path d="M30.2701 9.62695C28.222 9.62695 26.2577 10.4406 24.8095 11.8888C23.3613 13.337 22.5476 15.3013 22.5476 17.3494V21.8856H34.1313C35.1844 21.8856 36.0484 23.4247 36.0484 24.4778H16.7693C14.7212 24.4778 12.757 25.2914 11.3087 26.7396C9.86049 28.1879 9.04688 30.1521 9.04688 32.2002V42.4095C9.04688 44.4576 9.86049 46.4219 11.3087 47.8701C12.757 49.3183 14.7212 50.1319 16.7693 50.1319H19.9555V42.8955C19.9519 41.8827 20.1484 40.8791 20.5335 39.9423C20.9186 39.0056 21.4849 38.154 22.1999 37.4366C22.9148 36.7191 23.7643 36.1499 24.6998 35.7614C25.6352 35.373 26.6381 35.1731 27.6509 35.1731H41.8267C46.093 35.1731 49.5492 31.7412 49.5492 27.475V17.3494C49.5492 15.3013 48.7356 13.337 47.2873 11.8888C45.8391 10.4406 43.8748 9.62695 41.8267 9.62695H30.2701ZM28.326 13.9742C29.406 13.9742 30.2701 14.2982 30.2701 15.8913C30.2701 17.4844 29.406 18.2971 28.326 18.2971C27.2729 18.2971 26.4089 17.4871 26.4089 15.894C26.4089 14.3009 27.2729 13.9742 28.326 13.9742Z" fill="#0288D1"/>
<path d="M52.1418 23.1289V30.3653C52.145 31.3779 51.9483 32.3812 51.563 33.3177C51.1777 34.2542 50.6113 35.1054 49.8964 35.8225C49.1815 36.5397 48.3321 37.1087 47.3969 37.497C46.4616 37.8852 45.4589 38.0851 44.4463 38.0851H30.2732C29.2604 38.0815 28.2568 38.2779 27.32 38.6631C26.3832 39.0482 25.5317 39.6145 24.8143 40.3294C24.0968 41.0444 23.5276 41.8939 23.1391 42.8293C22.7507 43.7647 22.5508 44.7676 22.5508 45.7805V55.9061C22.5508 57.9542 23.3644 59.9184 24.8126 61.3666C26.2609 62.8149 28.2251 63.6285 30.2732 63.6285H41.8299C43.8775 63.6285 45.8413 62.8153 47.2895 61.3676C48.7377 59.9199 49.5516 57.9564 49.5523 55.9088V51.3725H37.966C36.9129 51.3725 36.0515 49.8334 36.0515 48.7804H55.3306C57.3788 48.7804 59.343 47.9667 60.7912 46.5185C62.2395 45.0703 63.0531 43.106 63.0531 41.0579V30.8513C63.0531 28.8032 62.2395 26.839 60.7912 25.3908C59.343 23.9425 57.3788 23.1289 55.3306 23.1289H52.1418ZM26.115 35.3147L26.1042 35.3255L26.2068 35.3147H26.115ZM43.774 54.961C44.827 54.961 45.6911 55.7711 45.6911 57.3641C45.6911 57.6159 45.6415 57.8652 45.5452 58.0978C45.4488 58.3304 45.3076 58.5417 45.1296 58.7197C44.9516 58.8978 44.7402 59.039 44.5076 59.1353C44.275 59.2317 44.0257 59.2813 43.774 59.2813C42.6939 59.2813 41.8299 58.9572 41.8299 57.3641C41.8299 55.7711 42.6939 54.961 43.774 54.961Z" fill="#FDD835"/>
</svg>
