<svg width="73" height="73" viewBox="0 0 73 73" fill="none" xmlns="http://www.w3.org/2000/svg">
<path d="M18.293 12C14.6413 12 11.939 15.1962 12.06 18.6625C12.1762 21.9925 12.0252 26.3057 10.9395 29.823C9.8505 33.3505 8.0085 35.585 5 35.872V39.111C8.0085 39.398 9.8505 41.6325 10.9395 45.1603C12.0252 48.6775 12.1762 52.9902 12.06 56.3205C11.939 59.7862 14.6412 62.983 18.2935 62.983H55.7118C59.3637 62.983 62.0652 59.7867 61.9442 56.3205C61.8282 52.9905 61.979 48.6775 63.0648 45.1603C64.1545 41.6328 65.9915 39.3978 69 39.111V35.872C65.9915 35.585 64.1545 33.3505 63.065 29.823C61.979 26.3062 61.8282 21.9927 61.9442 18.6625C62.0652 15.1967 59.3637 12 55.7118 12H18.2925H18.293ZM48.39 43.3832C48.39 48.1562 44.83 51.0508 38.922 51.0508H28.8645C28.5769 51.0506 28.3011 50.9363 28.0977 50.7329C27.8943 50.5295 27.7801 50.2536 27.78 49.966V25.017C27.78 24.7293 27.8943 24.4533 28.0977 24.2499C28.3011 24.0464 28.577 23.9321 28.8647 23.932H38.8645C43.7907 23.932 47.0238 26.6007 47.0238 30.6978C47.0238 33.5735 44.8487 36.148 42.078 36.5987V36.749C45.8502 37.1628 48.39 39.775 48.39 43.3832ZM37.825 27.3708H32.0907V35.4708H36.9207C40.6542 35.4708 42.7132 33.9673 42.7132 31.2798C42.7132 28.7615 40.9425 27.3708 37.825 27.3708ZM32.091 38.6847V47.611H38.0365C41.9235 47.611 43.983 46.0512 43.983 43.1197C43.983 40.1877 41.8662 38.6842 37.7865 38.6842H32.091V38.6847Z" fill="#7E13F8"/>
</svg>
