<svg width="73" height="73" viewBox="0 0 73 73" fill="none" xmlns="http://www.w3.org/2000/svg">
<path fill-rule="evenodd" clip-rule="evenodd" d="M11.0265 9.54883C10.7478 9.54876 10.4724 9.60911 10.2192 9.72573C9.96607 9.84234 9.7412 10.0124 9.56011 10.2243C9.37903 10.4362 9.24602 10.6848 9.17026 10.953C9.0945 11.2213 9.07779 11.5027 9.12127 11.778L14.9064 48.4174C14.9466 48.6735 15.038 48.9189 15.1752 49.139C15.3123 49.359 15.4925 49.549 15.7048 49.6979L34.9887 63.1966C35.313 63.4239 35.6995 63.5459 36.0956 63.5459C36.4916 63.5459 36.8781 63.4239 37.2024 63.1966L56.4863 49.6979C56.6986 49.549 56.8788 49.359 57.0159 49.139C57.1531 48.9189 57.2445 48.6735 57.2847 48.4174L63.0698 11.778C63.1133 11.5027 63.0966 11.2213 63.0208 10.953C62.9451 10.6848 62.8121 10.4362 62.631 10.2243C62.4499 10.0124 62.225 9.84234 61.9719 9.72573C61.7187 9.60911 61.4433 9.54876 61.1646 9.54883H11.0265Z" fill="#8FBFFA"/>
<path fill-rule="evenodd" clip-rule="evenodd" d="M22.8867 21.4554C22.8867 20.1248 23.9666 19.0449 25.2972 19.0449H46.8951C47.4181 19.046 47.9266 19.2171 48.3438 19.5324C48.7611 19.8478 49.0644 20.2903 49.2081 20.7932C49.3518 21.2961 49.328 21.832 49.1403 22.3202C48.9527 22.8084 48.6114 23.2223 48.1679 23.4995L38.0246 29.8439H44.7353C46.0659 29.8439 47.1458 30.9238 47.1458 32.2544V43.0533C47.1444 43.4273 47.0566 43.7959 46.8893 44.1303C46.7221 44.4648 46.4799 44.7562 46.1816 44.9817L37.5425 51.4573C37.1252 51.7702 36.6177 51.9394 36.0962 51.9394C35.5746 51.9394 35.0671 51.7702 34.6499 51.4573L26.0107 44.9779C25.7575 44.7879 25.5441 44.55 25.3828 44.2776C25.2216 44.0052 25.1155 43.7038 25.0707 43.3904C25.026 43.077 25.0434 42.7579 25.1219 42.4513C25.2005 42.1446 25.3387 41.8564 25.5286 41.6032C25.7185 41.35 25.9565 41.1366 26.2289 40.9753C26.5013 40.814 26.8027 40.708 27.1161 40.6632C27.4295 40.6185 27.7486 40.6359 28.0552 40.7144C28.3619 40.793 28.65 40.9312 28.9033 41.1211L36.0962 46.5167L42.3249 41.8462V34.6649H29.6168C29.0935 34.6647 28.5844 34.4941 28.1666 34.1791C27.7487 33.864 27.4447 33.4215 27.3005 32.9184C27.1564 32.4154 27.1798 31.879 27.3674 31.3905C27.555 30.9019 27.8964 30.4876 28.3402 30.2103L38.4874 23.8659H25.2972C24.6579 23.8659 24.0448 23.6119 23.5927 23.1599C23.1407 22.7078 22.8867 22.0947 22.8867 21.4554Z" fill="#2859C5"/>
</svg>
