<svg width="73" height="73" viewBox="0 0 73 73" fill="none" xmlns="http://www.w3.org/2000/svg">
<path d="M30.7178 11.8297L28.0973 14.4502L31.6929 18.0458L35.458 21.8109C36.3155 21.3867 37.2671 21.1884 38.2227 21.2347C39.1783 21.281 40.1063 21.5705 40.9187 22.0757C41.7312 22.5809 42.4013 23.2851 42.8655 24.1216C43.3298 24.9582 43.5728 25.8994 43.5717 26.8561C43.5514 27.7098 43.3526 28.5499 42.9881 29.3222L46.8661 33.0873C47.8831 32.4997 49.0733 32.2853 50.2314 32.4812C51.3895 32.6771 52.443 33.2709 53.2102 34.1603C53.7463 34.6744 54.1703 35.2938 54.4554 35.9797C54.7405 36.6656 54.8806 37.403 54.8669 38.1456C54.8681 39.6285 54.2898 41.0533 53.2554 42.1159C52.735 42.6594 52.1078 43.0895 51.4132 43.3791C50.7186 43.6688 49.9717 43.8117 49.2193 43.7989C48.475 43.8106 47.736 43.6715 47.0469 43.39C46.3578 43.1085 45.7328 42.6905 45.2095 42.1611C44.3229 41.3874 43.7329 40.3296 43.5406 39.1687C43.3483 38.0079 43.5656 36.8163 44.1553 35.7981L40.3902 31.9201C40.2 32.0061 40.0052 32.0815 39.8066 32.146V44.1565C40.8996 44.5458 41.8461 45.2623 42.5175 46.2085C43.2027 47.149 43.5719 48.2827 43.5717 49.4464C43.5865 50.1919 43.4473 50.9325 43.1629 51.6218C42.8785 52.3111 42.455 52.9343 41.9188 53.4525C40.8937 54.4764 39.5121 55.064 38.0634 55.0922C37.0166 55.1249 35.9815 54.864 35.0752 54.339C34.169 53.8141 33.4277 53.046 32.9353 52.1216C32.4428 51.1973 32.2189 50.1536 32.2888 49.1086C32.3587 48.0636 32.7196 47.059 33.3307 46.2085C34.0021 45.2623 34.9486 44.5458 36.0416 44.1565V32.146C34.9462 31.7611 33.9985 31.0437 33.3307 30.094C32.6431 29.1547 32.2737 28.0202 32.2765 26.8561C32.2749 25.9996 32.4748 25.1548 32.8601 24.39L25.5182 17.0481L11.2505 31.3026C10.5508 32.0018 9.99574 32.8319 9.61697 33.7456C9.23819 34.6594 9.04314 35.6388 9.04297 36.6279C9.04279 37.617 9.23749 38.5965 9.61595 39.5104C9.9944 40.4242 10.5492 41.2546 11.2486 41.954L30.7178 61.4231C32.1299 62.8348 34.0448 63.6278 36.0416 63.6278C38.0383 63.6278 39.9532 62.8348 41.3654 61.4231L60.8383 41.9502C62.2499 40.5381 63.043 38.6231 63.043 36.6264C63.043 34.6297 62.2499 32.7147 60.8383 31.3026L41.3654 11.8297C39.9532 10.418 38.0383 9.625 36.0416 9.625C34.0448 9.625 32.1299 10.418 30.7178 11.8297Z" fill="#E64A19"/>
</svg>
