<svg width="73" height="73" viewBox="0 0 73 73" fill="none" xmlns="http://www.w3.org/2000/svg">
<path d="M28.6188 51.3772C28.6188 51.3772 26.5569 52.5771 30.088 52.9819C34.3666 53.4707 36.553 53.4006 41.2666 52.5096C41.2666 52.5096 42.5084 53.286 44.2394 53.959C33.6689 58.4875 20.3173 53.6964 28.6188 51.3772ZM27.3264 45.4668C27.3264 45.4668 25.0132 47.1792 28.5474 47.5451C33.1179 48.017 36.7264 48.0555 42.9738 46.853C42.9738 46.853 43.8358 47.7289 45.1935 48.2073C32.4159 51.9443 18.1841 48.5014 27.3264 45.4668Z" fill="#0074BD"/>
<path d="M38.2084 35.443C40.8144 38.4425 37.525 41.1393 37.525 41.1393C37.525 41.1393 44.1379 37.7263 41.1016 33.4503C38.2646 29.4646 36.0899 27.4849 47.8641 20.6562C47.8641 20.6567 29.3819 25.2713 38.2084 35.443Z" fill="#EA2D2E"/>
<path d="M52.1915 55.754C52.1915 55.754 53.7179 57.0126 50.5098 57.9853C44.4104 59.8331 25.1181 60.3902 19.7599 58.0593C17.8348 57.2211 21.4464 56.0589 22.5826 55.8136C23.7673 55.5572 24.4438 55.6039 24.4438 55.6039C22.3015 54.0957 10.5973 58.5667 18.4996 59.8491C40.0484 63.3422 57.7801 58.276 52.1915 55.754ZM29.609 39.3461C29.609 39.3461 19.7967 41.677 26.1345 42.5243C28.811 42.8825 34.144 42.8003 39.115 42.3833C43.1764 42.0421 47.2521 41.3133 47.2521 41.3133C47.2521 41.3133 45.8213 41.927 44.7849 42.6338C34.8187 45.2553 15.5705 44.0343 21.1124 41.3544C25.7976 39.0884 29.609 39.3461 29.609 39.3461ZM47.2114 49.1848C57.3416 43.9223 52.6573 38.8647 49.3879 39.546C48.5886 39.7125 48.23 39.8574 48.23 39.8574C48.23 39.8574 48.5276 39.3907 49.095 39.19C55.5626 36.9171 60.5357 45.8954 47.009 49.4516C47.009 49.4508 47.1643 49.3102 47.2114 49.1848Z" fill="#0074BD"/>
<path d="M41.1057 9.62109C41.1057 9.62109 46.7147 15.2335 35.7843 23.8611C27.0188 30.7841 33.7856 34.7304 35.7813 39.2412C30.6641 34.6249 26.9107 30.5605 29.4284 26.778C33.1256 21.227 43.3682 18.5346 41.1057 9.62109Z" fill="#EA2D2E"/>
<path d="M30.5976 63.4522C40.319 64.0737 55.2515 63.1062 55.6049 58.5059C55.6049 58.5059 54.9254 60.2498 47.5699 61.6334C39.2714 63.1957 29.0345 63.0136 22.9648 62.0115C22.9648 62.0119 24.2084 63.0413 30.5976 63.4522Z" fill="#0074BD"/>
</svg>
