<svg width="73" height="73" viewBox="0 0 73 73" fill="none" xmlns="http://www.w3.org/2000/svg">
<path d="M50.3906 9.62695H21.7031C14.7133 9.62695 9.04688 15.2933 9.04688 22.2832V50.9707C9.04688 57.9606 14.7133 63.627 21.7031 63.627H50.3906C57.3805 63.627 63.0469 57.9606 63.0469 50.9707V22.2832C63.0469 15.2933 57.3805 9.62695 50.3906 9.62695Z" fill="#F0DB4F"/>
<path d="M23.2502 54.7503L27.3825 52.2494C28.1798 53.6629 28.905 54.8589 30.6446 54.8589C32.3121 54.8589 33.3634 54.2067 33.3634 51.6695V34.4152H38.4381V51.7412C38.4381 56.9972 35.3572 59.3896 30.8621 59.3896C26.8026 59.3896 24.4462 57.2872 23.25 54.7498M41.1945 54.2065L45.3263 51.8142C46.4141 53.5905 47.8278 54.8954 50.3287 54.8954C52.4315 54.8954 53.7722 53.8441 53.7722 52.3941C53.7722 50.6543 52.3948 50.0379 50.0749 49.0233L48.8066 48.4793C45.1453 46.9209 42.7166 44.9634 42.7166 40.8311C42.7166 37.025 45.6165 34.125 50.1477 34.125C53.3738 34.125 55.6937 35.2489 57.3609 38.1849L53.4098 40.7223C52.5397 39.1637 51.5977 38.5475 50.1477 38.5475C48.6614 38.5475 47.719 39.49 47.719 40.7223C47.719 42.2446 48.6614 42.861 50.8362 43.8037L52.1048 44.3472C56.4182 46.1961 58.847 48.0806 58.847 52.3215C58.847 56.8892 55.2585 59.39 50.4375 59.39C45.7254 59.39 42.6805 57.1427 41.1945 54.2065Z" fill="#323330"/>
</svg>
