<svg width="73" height="73" viewBox="0 0 73 73" fill="none" xmlns="http://www.w3.org/2000/svg">
<path fill-rule="evenodd" clip-rule="evenodd" d="M50.2093 24.418C51.1247 27.0659 51.7839 29.7692 52.0007 32.5712C52.2699 36.0472 52.1467 39.4987 51.4138 42.9178C51.3939 43.0119 51.3517 43.1003 51.3203 43.1915C51.0904 43.1921 50.856 43.1636 50.6313 43.1984C48.7328 43.4966 46.8359 43.8057 44.9391 44.1131C42.9783 44.4308 41.0147 44.7359 39.0574 45.0753C38.3639 45.195 37.5056 45.0519 37.2256 46.0111C37.2176 46.0374 37.1378 46.0419 37.0916 46.0568L37.1862 40.3246L37.0898 26.4933L38.0035 26.3365C39.4977 26.0918 40.9919 25.8438 42.4873 25.6059C44.2718 25.3225 46.058 25.047 47.8437 24.7704C48.6313 24.6478 49.42 24.5355 50.2093 24.418Z" fill="#439934"/>
<path fill-rule="evenodd" clip-rule="evenodd" d="M35.2031 62.7666C34.2393 61.9379 33.2418 61.1458 32.3179 60.2743C27.3465 55.5852 23.7102 50.0663 21.9194 43.4125C21.4261 41.5812 21.097 39.7203 20.9915 37.828C20.9174 36.5037 20.8101 35.1675 20.9037 33.85C21.1529 30.346 21.6593 26.8757 22.687 23.5006L22.7435 23.4219C22.8433 23.5548 22.987 23.6722 23.0378 23.8222C24.0408 26.7765 25.0373 29.7328 26.0274 32.6912C29.1401 41.9873 32.2489 51.2856 35.3668 60.5794C35.4278 60.7608 35.5858 60.9097 35.6993 61.0733L35.2031 62.7666Z" fill="#45A538"/>
<path fill-rule="evenodd" clip-rule="evenodd" d="M50.2086 24.4179C49.4193 24.5354 48.63 24.6477 47.8424 24.7692C46.0567 25.0458 44.2705 25.3213 42.486 25.6047C40.9907 25.8425 39.4964 26.0906 38.0022 26.3353L37.0886 26.4921L37.0817 25.8961C37.0515 25.4062 36.9996 24.9169 36.9939 24.427C36.9546 21.3028 36.93 18.1787 36.8912 15.0545C36.8673 13.0989 36.8314 11.1439 36.7914 9.18883C36.7669 7.97406 36.7407 6.75873 36.6859 5.54567C36.6563 4.8938 36.5513 4.24536 36.5086 3.59349C36.4846 3.2188 36.5177 2.84125 36.5251 2.46484C36.9911 3.36765 37.4467 4.2773 37.9258 5.17326C38.6826 6.58991 39.8882 7.63359 40.9735 8.7725C45.264 13.2734 48.3101 18.5066 50.2086 24.4179Z" fill="#46A037"/>
<path fill-rule="evenodd" clip-rule="evenodd" d="M37.0909 46.0557C37.1371 46.0408 37.2175 46.0363 37.2249 46.01C37.5049 45.0508 38.3632 45.1939 39.0567 45.0741C41.0141 44.7354 42.9776 44.4297 44.9384 44.112C46.8352 43.8046 48.7321 43.4955 50.6307 43.1972C50.8554 43.1619 51.0898 43.191 51.3196 43.1904C50.9649 44.4565 50.6854 45.75 50.2354 46.9813C49.7244 48.378 49.1062 49.741 48.4498 51.0773C47.4677 53.0707 46.2514 54.9399 44.8266 56.6452C43.7322 57.9615 42.5123 59.178 41.2895 60.3796C40.6137 61.044 39.817 61.5853 39.0756 62.1824L38.8834 62.0512L38.191 61.4592L37.4747 59.8892C36.9854 58.0576 36.7185 56.1738 36.6797 54.2784L36.6928 53.9585L36.7903 52.5749C36.8228 52.1027 36.8662 51.631 36.8861 51.1577C36.9597 49.457 37.0236 47.7563 37.0909 46.0557Z" fill="#409433"/>
<path fill-rule="evenodd" clip-rule="evenodd" d="M37.089 46.0556C37.0217 47.7563 36.9578 49.4569 36.8854 51.1582C36.8654 51.6315 36.822 52.1032 36.7895 52.5754L36.3532 52.7402C35.3843 49.8875 34.4148 47.0651 33.4663 44.2352C31.898 39.5535 30.3484 34.8644 28.7824 30.1815C27.5175 26.4018 26.2438 22.6249 24.9613 18.8511C24.9014 18.6743 24.7291 18.5363 24.6094 18.38L27.4016 13.2461C27.4974 13.4126 27.624 13.5683 27.6845 13.7474C28.9777 17.5697 30.2643 21.3942 31.5444 25.2209C33.2074 30.1998 34.8602 35.1826 36.5221 40.162C36.5882 40.361 36.6977 40.5447 36.8021 40.7677L37.1842 40.3228L37.089 46.0556Z" fill="#4FAA41"/>
<path fill-rule="evenodd" clip-rule="evenodd" d="M24.6122 18.3789C24.7319 18.5352 24.9036 18.6732 24.964 18.85C26.2465 22.6238 27.5202 26.4006 28.7851 30.1804C30.3512 34.8632 31.9008 39.5523 33.4691 44.234C34.417 47.0633 35.3865 49.8864 36.356 52.7391L36.7923 52.5743L36.6948 53.9579L36.6064 54.2767C36.4547 55.7914 36.3269 57.3096 36.1422 58.8209C36.0492 59.5783 35.8519 60.322 35.7019 61.0719C35.589 60.9082 35.4304 60.7594 35.3694 60.578C32.2515 51.2837 29.1427 41.9859 26.03 32.6898C25.0397 29.7313 24.0431 26.775 23.0404 23.8208C22.9896 23.6708 22.8465 23.5534 22.7461 23.4205L24.6122 18.3789Z" fill="#4AA73C"/>
<path fill-rule="evenodd" clip-rule="evenodd" d="M37.1849 40.3224L36.8028 40.7672C36.6984 40.5442 36.5889 40.36 36.5228 40.1616C34.8615 35.1822 33.2081 30.1993 31.5451 25.2205C30.2651 21.3938 28.9784 17.5693 27.6852 13.747C27.6253 13.5679 27.4987 13.4116 27.4023 13.2457L30.8556 8.70312C30.9645 8.84855 31.1196 8.97802 31.1761 9.14169C32.1342 11.9484 33.0853 14.7578 34.0294 17.5698C34.9116 20.1955 35.7808 22.8252 36.6733 25.4475C36.7332 25.6232 36.9414 25.7475 37.0805 25.8958L37.0874 26.4917C37.1205 31.1014 37.153 35.7116 37.1849 40.3224Z" fill="#57AE47"/>
<path fill-rule="evenodd" clip-rule="evenodd" d="M37.0804 25.8954C36.9413 25.7472 36.7331 25.6228 36.6732 25.4472C35.7807 22.8249 34.9115 20.1952 34.0293 17.5694C33.0852 14.7578 32.1341 11.9484 31.176 9.14137C31.1195 8.97769 30.9644 8.84823 30.8555 8.7028C31.9784 7.60323 33.0666 6.46432 34.2346 5.41552C35.2731 4.48363 36.108 3.48444 36.1463 2.01189C36.148 1.95087 36.1799 1.88984 36.229 1.71875L36.5249 2.46358C36.5175 2.84055 36.4839 3.21753 36.5084 3.59223C36.5512 4.24409 36.6561 4.89254 36.6858 5.54441C36.7405 6.75746 36.7668 7.9728 36.7913 9.18756C36.8306 11.1426 36.8666 13.0976 36.8911 15.0532C36.9293 18.1774 36.9544 21.3016 36.9937 24.4257C36.9983 24.9168 37.0496 25.4055 37.0804 25.8954Z" fill="#60B24F"/>
<path fill-rule="evenodd" clip-rule="evenodd" d="M35.6993 61.0705C35.8493 60.3205 36.0466 59.5763 36.1396 58.8195C36.3249 57.3087 36.4521 55.79 36.6038 54.2752L36.6415 54.2695L36.6791 54.2758C36.7179 56.1712 36.9848 58.055 37.4741 59.8865C37.3737 60.0189 37.2317 60.1369 37.1787 60.2863C36.7641 61.4555 36.3734 62.6337 35.9565 63.8029C35.8995 63.9626 35.7409 64.0869 35.6291 64.2272L35.2031 62.7638L35.6993 61.0705Z" fill="#A9AA88"/>
<path fill-rule="evenodd" clip-rule="evenodd" d="M35.6289 64.2274C35.7407 64.0871 35.8998 63.9627 35.9563 63.8031C36.3732 62.6339 36.7644 61.4562 37.1784 60.2865C37.2315 60.1371 37.3729 60.019 37.4739 59.8867L38.1896 61.4574C38.0482 61.6581 37.8531 61.8389 37.7744 62.0625L36.4034 66.0883C36.3469 66.2497 36.1542 66.3638 36.0253 66.5001L35.6289 64.2274Z" fill="#B6B598"/>
<path fill-rule="evenodd" clip-rule="evenodd" d="M36.0273 66.4997C36.1568 66.364 36.349 66.2494 36.4055 66.088L37.7765 62.0621C37.8546 61.8391 38.0502 61.6578 38.1917 61.457L38.8846 62.0484C38.5498 62.3792 38.3639 62.7613 38.4757 63.2444L38.2652 63.9333C38.1694 64.0514 38.0308 64.154 37.9835 64.2892C37.505 65.6597 37.0482 67.0375 36.5663 68.408C36.5053 68.5819 36.3359 68.7182 36.2161 68.8711C36.1538 68.0806 36.0908 67.2902 36.0273 66.4997Z" fill="#C2C1A7"/>
<path fill-rule="evenodd" clip-rule="evenodd" d="M36.2153 68.8714C36.3345 68.7179 36.5039 68.5816 36.5655 68.4083C37.0474 67.0384 37.5042 65.6605 37.9827 64.2895C38.03 64.1549 38.168 64.0516 38.2644 63.9336L37.9741 67.096C37.8966 67.1855 37.7842 67.2636 37.7472 67.368C37.4192 68.2885 37.1101 69.2158 36.7811 70.1363C36.7132 70.3262 36.5832 70.4939 36.4816 70.6713C36.3915 70.5532 36.2301 70.4391 36.2227 70.316C36.1936 69.8363 36.2136 69.3533 36.2153 68.8714Z" fill="#CECDB7"/>
<path fill-rule="evenodd" clip-rule="evenodd" d="M36.4805 70.6729C36.582 70.495 36.712 70.3273 36.7799 70.138C37.1095 69.2181 37.4181 68.2907 37.746 67.3697C37.7831 67.2653 37.896 67.1878 37.973 67.0977L37.9798 69.1736L37.2852 70.9552L36.4805 70.6729Z" fill="#DBDAC7"/>
<path fill-rule="evenodd" clip-rule="evenodd" d="M37.2852 70.9535L37.9798 69.1719L38.1229 71.2797L37.2852 70.9535Z" fill="#EBE9DC"/>
<path fill-rule="evenodd" clip-rule="evenodd" d="M38.474 63.2467C38.3622 62.7637 38.5476 62.381 38.8829 62.0508L39.0751 62.182L38.474 63.2467Z" fill="#CECDB7"/>
<path fill-rule="evenodd" clip-rule="evenodd" d="M36.6808 54.2764L36.6431 54.2701L36.6055 54.2758L36.6939 53.957L36.6808 54.2764Z" fill="#4FAA41"/>
</svg>
