<svg width="73" height="73" viewBox="0 0 73 73" fill="none" xmlns="http://www.w3.org/2000/svg">
<g clip-path="url(#clip0_1693_4828)">
<path d="M36.5039 14.6016C26.7704 14.6016 20.6891 19.4663 18.2539 29.1999C21.9028 24.3345 26.1624 22.5101 31.0278 23.7266C33.8058 24.4189 35.791 26.4333 37.9896 28.6655C41.5677 32.2966 45.7093 36.5004 54.7539 36.5004C64.4869 36.5004 70.5687 31.6351 73.0039 21.8993C69.3539 26.7671 65.0958 28.5925 60.2295 27.3754C57.4521 26.6825 55.4691 24.6687 53.2677 22.4365C49.6918 18.8053 45.5513 14.6016 36.5039 14.6016ZM18.2539 36.5004C8.52095 36.5004 2.43914 41.3658 0.00390625 51.1016C3.65353 46.2338 7.91148 44.4084 12.7778 45.6254C15.5558 46.3184 17.541 48.3321 19.7396 50.5643C23.3177 54.1955 27.4593 58.3993 36.5039 58.3993C46.2369 58.3993 52.3187 53.5345 54.7539 43.801C51.1039 48.6665 46.8458 50.491 41.9795 49.2743C39.2021 48.5819 37.2191 46.5676 35.0177 44.3354C31.4418 40.7042 27.3013 36.5004 18.2539 36.5004Z" fill="#38BDF8"/>
</g>
<defs>
<clipPath id="clip0_1693_4828">
<rect width="73" height="73" fill="white"/>
</clipPath>
</defs>
</svg>
