<svg width="72" height="72" viewBox="0 0 72 72" fill="none" xmlns="http://www.w3.org/2000/svg">
<path d="M8.99406 51.7499V62.9999H20.2441L53.4241 29.7899L42.1741 18.5399L8.99406 51.7499ZM67.8241 55.0799L55.0741 67.8299L39.4741 52.2299L44.7841 46.9199L47.7841 49.9199L55.1941 42.4799L59.4541 46.7399L55.0741 50.9999L58.2541 53.9999L62.5141 49.7999L67.8241 55.0799ZM19.8241 32.4899L4.16406 16.9199L16.9141 4.16992L22.1941 9.47992L14.7841 16.9199L17.9941 20.0999L25.3741 12.6599L29.6341 16.9199L25.3741 21.1499L28.3741 24.1499L19.8241 32.4899ZM62.1241 20.9999C63.2941 19.8299 63.2941 17.9999 62.1241 16.7699L55.1041 9.86992C53.9941 8.69992 52.0441 8.69992 50.8741 9.86992L45.3541 15.3599L56.6041 26.6099L62.1241 20.9999Z" fill="black"/>
</svg>
