<svg width="72" height="72" viewBox="0 0 72 72" fill="none" xmlns="http://www.w3.org/2000/svg">
<path d="M34.5039 60.002H10.5039C8.01863 60.002 6.00391 57.9873 6.00391 55.502V16.502C6.00391 14.0167 8.01863 12.002 10.5039 12.002H61.5039C63.9893 12.002 66.0039 14.0167 66.0039 16.502V38.8256" stroke="black" stroke-width="6" stroke-linecap="round" stroke-linejoin="round"/>
<path d="M6.00391 16.502C6.00391 14.0167 8.01863 12.002 10.5039 12.002H61.5039C63.9893 12.002 66.0039 14.0167 66.0039 16.502V30.002H6.00391V16.502Z" fill="#2F88FF" stroke="black" stroke-width="6"/>
<path d="M51 49.5L45 55.5L51 61.5" stroke="black" stroke-width="6" stroke-linecap="round" stroke-linejoin="round"/>
<path d="M60.0039 49.5L66.0039 55.5L60.0039 61.5" stroke="black" stroke-width="6" stroke-linecap="round" stroke-linejoin="round"/>
<path d="M12 21.0039C12 19.3471 13.3431 18.0039 15 18.0039C16.6569 18.0039 18 19.3471 18 21.0039C18 22.6608 16.6569 24.0039 15 24.0039C13.3431 24.0039 12 22.6608 12 21.0039Z" fill="white"/>
<path d="M21 21.0039C21 19.3471 22.3431 18.0039 24 18.0039C25.6569 18.0039 27 19.3471 27 21.0039C27 22.6608 25.6569 24.0039 24 24.0039C22.3431 24.0039 21 22.6608 21 21.0039Z" fill="white"/>
</svg>
