<svg width="478" height="290" viewBox="0 0 478 290" fill="none" xmlns="http://www.w3.org/2000/svg">
<path d="M471.899 274.4C469.04 243.55 465.816 225.639 456.27 193.896C456.12 193.396 455.606 193.087 455.095 193.2L379.861 209.81C379.369 209.919 379.034 210.376 379.08 210.878L384.917 274.591C384.964 275.106 385.396 275.5 385.913 275.5H470.904C471.493 275.5 471.953 274.986 471.899 274.4Z" fill="#FFCCB5" stroke="black" stroke-width="12" stroke-linecap="round"/>
<path d="M6.1013 274.4C8.96031 243.55 12.1841 225.639 21.7299 193.896C21.8804 193.396 22.3944 193.087 22.905 193.2L98.1394 209.81C98.6312 209.919 98.9655 210.376 98.9196 210.878L93.0832 274.591C93.0361 275.106 92.6044 275.5 92.0874 275.5H7.09568C6.50742 275.5 6.04702 274.986 6.1013 274.4Z" fill="#FFCCB5" stroke="black" stroke-width="12" stroke-linecap="round"/>
<path d="M188.043 32C185.549 96.5 293.048 92 289.043 32L288.57 7.10904C288.558 6.516 288.026 6.0644 287.437 6.13609C249.341 10.7747 227.336 10.7762 189.163 6.62254C188.571 6.55812 188.043 7.02047 188.043 7.61605V32Z" fill="#FFCCB5" stroke="black" stroke-width="12" stroke-linecap="round"/>
<path d="M379.118 218L384.902 282.411C384.955 282.996 384.494 283.5 383.906 283.5H94.0913C93.5046 283.5 93.044 282.997 93.0951 282.413L98.8625 216.5L15.9621 200.189C15.4277 200.084 15.0782 199.556 15.1742 199.02C34.7542 89.6577 89.8669 45.8061 186.391 36.1097C186.979 36.0507 187.499 36.5416 187.51 37.1321C188.694 101.012 290.148 95.725 290.506 37.1679C290.51 36.5631 291.056 36.0647 291.656 36.1363C414.771 50.8151 447.318 109.369 461.848 198.562C461.933 199.085 461.597 199.59 461.081 199.705L379.118 218Z" fill="#61000A"/>
<path d="M374 161L379.118 218M379.118 218L384.902 282.411C384.955 282.996 384.494 283.5 383.906 283.5H94.0913C93.5046 283.5 93.044 282.997 93.0951 282.413L98.8625 216.5M379.118 218L461.081 199.705C461.597 199.59 461.933 199.085 461.848 198.562C447.318 109.369 414.771 50.8151 291.656 36.1363C291.056 36.0647 290.51 36.5631 290.506 37.1679C290.148 95.725 188.694 101.012 187.51 37.1321C187.499 36.5416 186.979 36.0507 186.391 36.1097C89.8669 45.8061 34.7542 89.6577 15.1742 199.02C15.0782 199.556 15.4277 200.084 15.9621 200.189L98.8625 216.5M103.5 163.5L98.8625 216.5" stroke="black" stroke-width="12" stroke-linecap="round"/>
</svg>
