<svg width="147" height="95" viewBox="0 0 147 95" fill="none" xmlns="http://www.w3.org/2000/svg">
<rect width="104" height="73" rx="26" transform="matrix(-1 0 0 1 109.998 10)" fill="#FFD5C4"/>
<path d="M102.455 7.96094C122.955 2.46798 142.037 44.5 140.955 55.9609V62.0206C140.955 62.5648 140.52 63.0091 139.976 63.0204L116.934 63.5C116.867 79.8712 112.26 85.9743 100.455 86.9609C73.4551 86.9609 76.9551 18.9609 102.455 7.96094Z" fill="#FFCBB5"/>
<path d="M31.4565 82.4663C-3.04493 103.966 -0.0470791 16.4663 26.9565 13.4663M55.9551 10.4663C12.9551 -9.03877 15.4551 101.961 54.4551 82.4663M88.9551 10.4663C41.9551 -20.0391 39.9551 116.961 85.4551 82.4663M115.955 46.9609C116.607 53.3797 116.953 58.8534 116.934 63.5M116.934 63.5C116.867 79.8712 112.26 85.9743 100.455 86.9609C73.4551 86.9609 76.9551 18.9609 102.455 7.96094C122.955 2.46798 142.037 44.5 140.955 55.9609V62.0206C140.955 62.5648 140.52 63.0091 139.976 63.0204L116.934 63.5Z" stroke="black" stroke-width="12" stroke-linecap="round"/>
</svg>
