<svg width="521" height="514" viewBox="0 0 521 514" fill="none" xmlns="http://www.w3.org/2000/svg">
<path d="M448.328 390.539C413.789 540.504 118.893 550.368 74.8597 395.431C56.5634 397.219 50.3352 396.779 45.3574 395.318C-3.81806 377.98 -8.31278 305.671 40.3036 289.426C40.4068 289.391 40.5199 289.373 40.6287 289.374C50.817 289.437 56.5744 289.359 66.9652 289.026C67.3112 288.181 67.6527 287.343 67.9896 286.512C83.4259 248.456 89.4427 224.976 96.8911 183.139C96.9894 182.587 97.5285 182.214 98.0785 182.323C209.901 204.509 308.098 200.245 394.867 150.951C395.489 150.598 396.277 150.994 396.368 151.704C402.66 200.726 419.568 236.585 453.519 272.672C453.691 272.855 453.79 273.097 453.793 273.348L453.899 281.457L453.932 283.956C467.003 283.639 474.196 283.567 484.717 284.53C484.861 284.543 485.005 284.589 485.13 284.662C529.762 310.653 523.068 376.078 473.32 390.212C465.616 391.36 460.023 391.374 448.328 390.539Z" fill="#FFCCB5"/>
<path d="M74.8597 395.431C118.893 550.368 413.789 540.504 448.328 390.539M74.8597 395.431C67.1485 354.248 64.3386 330.28 66.9652 289.026M74.8597 395.431C56.5634 397.219 50.3352 396.779 45.3574 395.318C-3.81806 377.98 -8.31278 305.671 40.3036 289.426C40.4068 289.391 40.5199 289.373 40.6287 289.374C50.817 289.437 56.5744 289.359 66.9652 289.026M448.328 390.539C456.618 353.32 457.32 327.749 453.932 283.956M448.328 390.539C460.023 391.374 465.616 391.36 473.32 390.212C523.068 376.078 529.762 310.653 485.13 284.662C485.005 284.589 484.861 284.543 484.717 284.53C474.196 283.567 467.003 283.639 453.932 283.956M453.932 283.956L453.899 281.457M66.9652 289.026C67.3112 288.181 67.6527 287.343 67.9896 286.512M429.905 281.771L453.899 281.457M453.899 281.457L453.793 273.347C453.79 273.097 453.691 272.855 453.519 272.672C419.568 236.585 402.66 200.726 396.368 151.704C396.277 150.994 395.489 150.598 394.867 150.951C308.098 200.245 209.901 204.509 98.0785 182.323C97.5285 182.214 96.9894 182.587 96.8911 183.139C89.4427 224.976 83.4259 248.456 67.9896 286.512M67.9896 286.512L86.4415 286.771M280.621 299.228C262.339 292.318 252.703 292.909 236.625 299.805M263.442 361.959C235.892 358.319 236.837 392.31 260.874 394.995M215.153 416.596C242.076 448.746 280.586 449.242 308.638 414.871" stroke="black" stroke-width="12" stroke-linecap="round"/>
<circle cx="357.752" cy="308.718" r="77" transform="rotate(-0.750512 357.752 308.718)" stroke="black" stroke-width="12"/>
<circle cx="160.77" cy="311.3" r="77" transform="rotate(-0.750512 160.77 311.3)" stroke="black" stroke-width="12"/>
<path d="M350.511 290.313C360.068 290.188 368.14 300.035 368.304 312.582C368.468 325.128 360.657 335.184 351.1 335.309C341.543 335.434 333.471 325.587 333.307 313.04C333.143 300.494 340.954 290.438 350.511 290.313Z" fill="black" stroke="black"/>
<path d="M169.526 292.682C179.083 292.557 187.155 302.405 187.32 314.951C187.484 327.497 179.673 337.553 170.116 337.678C160.559 337.803 152.487 327.956 152.323 315.409C152.158 302.863 159.97 292.807 169.526 292.682Z" fill="black" stroke="black"/>
<path d="M451.528 274.224C417.829 226.769 400.497 198.596 394.198 151.15C394.104 150.437 393.305 150.039 392.684 150.404C308.598 199.753 207.946 201.399 95.3866 181.041C88.0996 223.014 81.7578 245.603 66.9254 283.941C66.8094 284.241 66.5505 284.474 66.239 284.553C56.6812 286.993 51.1948 286.981 41.9376 285.38C41.5241 285.308 41.1966 284.974 41.1237 284.56C30.934 226.775 31.4412 199.208 46.6288 161.678C-13.9519 117.967 16.8457 25.5559 62.101 6.96151C66.5488 5.82676 68.4488 6.68855 70.172 12.3563C77.9247 36.2185 85.412 44.6989 103.193 51.9269C123.327 58.8781 150.085 50.4778 205.903 29.0796C246.939 12.9122 270.464 8.35395 313.684 11.6663C374.833 18.8075 420.275 49.604 417.495 104.596C417.463 105.222 418.019 105.741 418.642 105.671C480.177 98.8004 514.274 159.128 478.373 277.941C478.265 278.299 477.959 278.578 477.591 278.645C468.369 280.32 462.99 280.774 454.013 280.855C453.55 280.86 453.144 280.544 453.034 280.094L451.685 274.568C451.655 274.445 451.601 274.327 451.528 274.224Z" fill="#2E2E2E"/>
<path d="M95.3866 181.041C207.946 201.399 308.598 199.753 392.684 150.404C393.305 150.039 394.104 150.437 394.198 151.15C400.497 198.596 417.829 226.769 451.528 274.224C451.601 274.327 451.655 274.445 451.685 274.568L453.034 280.094C453.144 280.544 453.55 280.86 454.013 280.855C462.99 280.774 468.369 280.32 477.591 278.645C477.959 278.578 478.265 278.299 478.373 277.941C514.274 159.128 480.177 98.8004 418.642 105.671C418.019 105.741 417.463 105.222 417.495 104.596C420.275 49.604 374.833 18.8075 313.684 11.6663C270.464 8.35395 246.939 12.9122 205.903 29.0796C150.085 50.4778 123.327 58.8781 103.193 51.9269C85.412 44.6989 77.9247 36.2185 70.172 12.3563C68.4488 6.68855 66.5488 5.82676 62.101 6.96151C16.8457 25.5559 -13.9519 117.967 46.6288 161.678M95.3866 181.041C88.0996 223.014 81.7578 245.603 66.9254 283.941C66.8094 284.241 66.5505 284.474 66.239 284.553C56.6812 286.993 51.1948 286.981 41.9376 285.38C41.5241 285.308 41.1966 284.974 41.1237 284.56C30.934 226.775 31.4412 199.208 46.6288 161.678M95.3866 181.041C74.9367 174.536 64.53 170.076 46.6288 161.678" stroke="black" stroke-width="12" stroke-linecap="round"/>
</svg>
