<svg width="147" height="95" viewBox="0 0 147 95" fill="none" xmlns="http://www.w3.org/2000/svg">
<rect x="37.002" y="10" width="104" height="73" rx="26" fill="#FFD5C4"/>
<path d="M44.5449 7.96094C24.0449 2.46798 4.96289 44.5 6.04492 55.9609V62.0206C6.04492 62.5648 6.48006 63.0091 7.02411 63.0204L30.0658 63.5C30.1331 79.8712 34.7402 85.9743 46.5449 86.9609C73.5449 86.9609 70.0449 18.9609 44.5449 7.96094Z" fill="#FFCBB5"/>
<path d="M115.544 82.4663C150.045 103.966 147.047 16.4663 120.044 13.4663M91.0449 10.4663C134.045 -9.03877 131.545 101.961 92.5449 82.4663M58.0449 10.4663C105.045 -20.0391 107.045 116.961 61.5449 82.4663M31.0449 46.9609C30.3933 53.3797 30.0467 58.8534 30.0658 63.5M30.0658 63.5C30.1331 79.8712 34.7402 85.9743 46.5449 86.9609C73.5449 86.9609 70.0449 18.9609 44.5449 7.96094C24.0449 2.46798 4.96289 44.5 6.04492 55.9609V62.0206C6.04492 62.5648 6.48005 63.0091 7.02411 63.0204L30.0658 63.5Z" stroke="black" stroke-width="12" stroke-linecap="round"/>
</svg>
