<svg width="1848" height="888" viewBox="0 0 1848 888" fill="none" xmlns="http://www.w3.org/2000/svg">
<path d="M23 41C20.5336 24.7861 9.90275 16.2352 0 0V888H1848V0C1840.59 15.3683 1803.5 19 1774 40C1755 55.5 1746.5 71.5 1742 88C1714 69.5 1688.5 72.5 1662 91C1605 56.5 1528 78.5 1491 157C1467.5 160.5 1452 172.5 1441 190C1421.55 183.144 1411.27 182.877 1394 188C1303.5 129 1208 175.5 1185 265C1173 270 1169 276 1163 285C1145.5 267 1124.73 264.392 1099 273C1069 241.5 1029.5 234 987 248C959.5 228 932.5 222.5 897 234C841 199.5 770.846 212.762 736 252C723.306 251.085 717.009 252.291 707 257C665.5 219 622.377 210.657 575 243C568.038 234.935 563.317 231.823 552 231C523.5 145 421 136 370 173C338.5 94 288.132 57.3123 203 79C169 55 140.198 52.5698 107 68C83 37 60.5 30.5 23 41Z" fill="#48D0F2"/>
</svg>
