<svg width="1848" height="290" viewBox="0 0 1848 290" fill="none" xmlns="http://www.w3.org/2000/svg">
<path d="M158.5 155C143.977 129.747 133.867 120.162 111.5 112.5C91.7256 49.5898 73.6488 19.3564 0 0V290H1H485C447.427 233.885 421.646 217.529 367.5 219.5C324.539 179.822 297.726 172.601 246 182C212.421 154.476 193.262 148.576 158.5 155Z" fill="white"/>
<path d="M1779.5 194.5C1785.58 139.315 1801.55 118.657 1848 96.5V289.5H1447.5C1495.1 200.162 1560.95 165.174 1658.5 213.5C1688.6 204.457 1705.16 206.903 1734.5 225.5C1746.99 204.576 1757.07 197.974 1779.5 194.5Z" fill="white"/>
</svg>
