<svg width="1848" height="457" viewBox="0 0 1848 457" fill="none" xmlns="http://www.w3.org/2000/svg">
<path d="M5 27C4.72042 15.3407 3.56405 9.33161 0 0V457H1848V18C1840.14 26.9955 1836.22 32.2676 1832 43C1777.5 56.5 1754.05 80.7497 1739 125.5C1716.86 126.954 1705.84 134.811 1687 153C1661.5 143.5 1628.5 145.5 1602 161C1556 143 1495 152.5 1452 194C1420.5 194 1395.98 201.456 1365 225C1313 223.5 1287.47 235.789 1256 266C1211.5 262 1173 288 1148 330C1146.02 329.334 1144.83 329.229 1143 330C1088.5 275 1019.22 282.707 974 326C944 318.5 919.5 325 896 347C856 248 743.5 222 666 283C661.404 281.841 659.008 281.887 655 283C620.5 243 580 228.5 527 241C507.331 227.291 496.138 222.765 476 221C435 160.5 363.5 147 312 167C302.836 159.715 297.356 157.489 287 158C254 86.5 186.5 61.5 124 79C95.1212 57.7855 74.6901 52.152 37 59C30.0076 44.0465 23.413 36.8258 5 27Z" fill="#BABABA"/>
</svg>
