<svg width="1848" height="356" viewBox="0 0 1848 356" fill="none" xmlns="http://www.w3.org/2000/svg">
<path d="M18 47C12.6121 34.9964 8.66436 29.0061 0 20V356H1848V0C1815.21 18.5448 1805.34 33.7715 1794 64.5C1774.95 64.5297 1764.45 68.5533 1746 82C1686.5 60 1621 80.5 1580 147C1544.84 154.688 1529.54 164.798 1509 192C1459.5 190.5 1425.13 209.053 1398 263C1320.5 193 1209.5 220.5 1171.5 316.5C1164.6 318.743 1161.21 320.606 1156 325C1121.62 304.834 1103.17 301.855 1072 314C1023.5 281.5 971.799 283.691 925 319C918.058 317.013 914.129 316.297 907 317C861 270 811.66 259.289 753 278C696.5 258.5 657.12 265.221 612 302.5C569.5 233.5 488.5 213.5 425 262C392 173 308.5 147.5 231 191C209.431 181.717 197.907 181.394 178 188C162.892 152.237 148.721 140.198 112.5 133.5C96.6184 81.8953 76.5906 62.4585 18 47Z" fill="#E8FBFF"/>
</svg>
