<svg width="1848" height="659" viewBox="0 0 1848 659" fill="none" xmlns="http://www.w3.org/2000/svg">
<path d="M119 132.001C99 74 52 57.001 0 64.0007V659H1848V0C1820.85 12.6511 1808.73 23.4181 1795 52C1740.5 57 1705.5 79.5 1688 146C1675.24 146.17 1669.71 149.012 1661 156C1588.5 116 1497.5 153.5 1481 244C1470.21 247.58 1465.06 251.263 1457 260C1418 232.5 1362.5 239 1329 283C1283.5 273.5 1256.82 287.897 1235 318C1218.5 311 1207.89 309.572 1190 314C1143 271 1077.5 268.5 1026 315C1014.43 312.919 1008.25 312.85 998 315C952 279 910 271.5 853 295C803 279 764.095 287.165 723 326C678 253 603.466 243.675 538 288C506 280.5 486.853 285.558 464 303C448.206 282.549 436.033 276.659 407 279C389.5 216.5 322 194 265 225C245.765 199.486 231.274 192.992 199.5 195.5C188.5 149 163.011 133.901 119 132.001Z" fill="#98E5F9"/>
</svg>
