<svg width="1848" height="782" viewBox="0 0 1848 782" fill="none" xmlns="http://www.w3.org/2000/svg">
<path d="M79 73C60.2111 34.2769 42.081 19.0126 0 0V782H1848V45C1780 35 1743.5 56 1707 99C1655.5 107 1629 125 1602 164C1565 172 1538.5 190 1518 224C1491.5 226 1477.22 232 1458 250C1400.5 236.5 1358 259.5 1329 303C1297.5 304 1274.79 316.151 1254 348C1234.5 341 1222.82 341.243 1204 350C1159.5 311 1107.5 311 1065 348C1054.53 343.342 1048.46 341.92 1037 343C961.5 273 872.5 290 819 364C788 329 754 320 717 329C684 301.5 650.5 294 618 304C582.5 274.5 548.044 269.309 511 281C487 264 471.853 257.075 444 258C400.5 203 332.5 193.5 281 229C266.5 150.5 219 111.5 143 111C119.719 87.914 105.794 79.1057 79 73Z" fill="#7DDEF6"/>
</svg>
